<mxfile host="Electron" agent="Mozilla/5.0 (Macintosh; Intel Mac OS X 10_15_7) AppleWebKit/537.36 (KHTML, like Gecko) draw.io/26.2.15 Chrome/134.0.6998.205 Electron/35.2.1 Safari/537.36" version="26.2.15">
  <diagram name="Page-1" id="x5GXv-Gf5CIBqI9PkEcv">
    <mxGraphModel dx="1543" dy="1146" grid="1" gridSize="10" guides="1" tooltips="1" connect="1" arrows="1" fold="1" page="1" pageScale="1" pageWidth="1169" pageHeight="827" math="1" shadow="0">
      <root>
        <mxCell id="0" />
        <mxCell id="1" parent="0" />
        <mxCell id="_ykrzSrl-alsBTrrcDqD-279" value="write()&lt;div&gt;1&lt;/div&gt;" style="ellipse;whiteSpace=wrap;html=1;aspect=fixed;fontFamily=Courier New;fontSize=17;" vertex="1" parent="1">
          <mxGeometry x="40" y="40" width="80" height="80" as="geometry" />
        </mxCell>
        <mxCell id="_ykrzSrl-alsBTrrcDqD-280" value="read()&lt;div&gt;1&lt;/div&gt;" style="ellipse;whiteSpace=wrap;html=1;aspect=fixed;fontFamily=Courier New;fontSize=17;" vertex="1" parent="1">
          <mxGeometry x="140" y="40" width="80" height="80" as="geometry" />
        </mxCell>
        <mxCell id="_ykrzSrl-alsBTrrcDqD-281" value="open()&lt;div&gt;1&lt;/div&gt;" style="ellipse;whiteSpace=wrap;html=1;aspect=fixed;fontFamily=Courier New;fontSize=17;" vertex="1" parent="1">
          <mxGeometry x="240" y="40" width="80" height="80" as="geometry" />
        </mxCell>
        <mxCell id="_ykrzSrl-alsBTrrcDqD-282" value="&lt;font style=&quot;font-size: 16px;&quot;&gt;execve()&lt;/font&gt;&lt;div&gt;&lt;font style=&quot;font-size: 16px;&quot;&gt;3&lt;/font&gt;&lt;/div&gt;" style="ellipse;whiteSpace=wrap;html=1;aspect=fixed;fontFamily=Courier New;fontSize=17;" vertex="1" parent="1">
          <mxGeometry x="40" y="140" width="80" height="80" as="geometry" />
        </mxCell>
        <mxCell id="_ykrzSrl-alsBTrrcDqD-283" value="kill()&lt;div&gt;2&lt;/div&gt;" style="ellipse;whiteSpace=wrap;html=1;aspect=fixed;fontFamily=Courier New;fontSize=17;" vertex="1" parent="1">
          <mxGeometry x="140" y="140" width="80" height="80" as="geometry" />
        </mxCell>
        <mxCell id="_ykrzSrl-alsBTrrcDqD-284" value="munmap()&lt;div&gt;1&lt;/div&gt;" style="ellipse;whiteSpace=wrap;html=1;aspect=fixed;fontFamily=Courier New;fontSize=17;" vertex="1" parent="1">
          <mxGeometry x="240" y="140" width="80" height="80" as="geometry" />
        </mxCell>
        <mxCell id="_ykrzSrl-alsBTrrcDqD-286" value="chmod()&lt;div&gt;3&lt;/div&gt;" style="ellipse;whiteSpace=wrap;html=1;aspect=fixed;fontFamily=Courier New;fontSize=17;" vertex="1" parent="1">
          <mxGeometry x="140" y="240" width="80" height="80" as="geometry" />
        </mxCell>
        <mxCell id="_ykrzSrl-alsBTrrcDqD-292" value="&lt;font style=&quot;font-size: 17px;&quot;&gt;Seccomp Filter&lt;/font&gt;" style="swimlane;whiteSpace=wrap;html=1;" vertex="1" parent="1">
          <mxGeometry x="30" y="10" width="310" height="330" as="geometry" />
        </mxCell>
        <mxCell id="_ykrzSrl-alsBTrrcDqD-285" value="getpid()&lt;div&gt;1&lt;/div&gt;" style="ellipse;whiteSpace=wrap;html=1;aspect=fixed;fontFamily=Courier New;fontSize=17;" vertex="1" parent="_ykrzSrl-alsBTrrcDqD-292">
          <mxGeometry x="210" y="230" width="80" height="80" as="geometry" />
        </mxCell>
        <mxCell id="_ykrzSrl-alsBTrrcDqD-287" value="umount()&lt;div&gt;2&lt;/div&gt;" style="ellipse;whiteSpace=wrap;html=1;aspect=fixed;fontFamily=Courier New;fontSize=17;" vertex="1" parent="_ykrzSrl-alsBTrrcDqD-292">
          <mxGeometry x="10" y="230" width="80" height="80" as="geometry" />
        </mxCell>
        <mxCell id="_ykrzSrl-alsBTrrcDqD-293" value="write()&lt;div&gt;1&lt;/div&gt;" style="ellipse;whiteSpace=wrap;html=1;aspect=fixed;fontFamily=Courier New;fontSize=17;fillColor=#dae8fc;strokeColor=#6c8ebf;" vertex="1" parent="1">
          <mxGeometry x="410" y="40" width="80" height="80" as="geometry" />
        </mxCell>
        <mxCell id="_ykrzSrl-alsBTrrcDqD-294" value="read()&lt;div&gt;1&lt;/div&gt;" style="ellipse;whiteSpace=wrap;html=1;aspect=fixed;fontFamily=Courier New;fontSize=17;fillColor=#dae8fc;strokeColor=#6c8ebf;" vertex="1" parent="1">
          <mxGeometry x="510" y="40" width="80" height="80" as="geometry" />
        </mxCell>
        <mxCell id="_ykrzSrl-alsBTrrcDqD-295" value="open()&lt;div&gt;1&lt;/div&gt;" style="ellipse;whiteSpace=wrap;html=1;aspect=fixed;fontFamily=Courier New;fontSize=17;fillColor=#dae8fc;strokeColor=#6c8ebf;" vertex="1" parent="1">
          <mxGeometry x="610" y="40" width="80" height="80" as="geometry" />
        </mxCell>
        <mxCell id="_ykrzSrl-alsBTrrcDqD-296" value="&lt;font style=&quot;font-size: 16px;&quot;&gt;execve()&lt;/font&gt;&lt;div&gt;&lt;font style=&quot;font-size: 16px;&quot;&gt;3&lt;/font&gt;&lt;/div&gt;" style="ellipse;whiteSpace=wrap;html=1;aspect=fixed;fontFamily=Courier New;fontSize=17;fillColor=#fff2cc;strokeColor=#d6b656;" vertex="1" parent="1">
          <mxGeometry x="410" y="140" width="80" height="80" as="geometry" />
        </mxCell>
        <mxCell id="_ykrzSrl-alsBTrrcDqD-297" value="kill()&lt;div&gt;2&lt;/div&gt;" style="ellipse;whiteSpace=wrap;html=1;aspect=fixed;fontFamily=Courier New;fontSize=17;fillColor=#fff2cc;strokeColor=#d6b656;" vertex="1" parent="1">
          <mxGeometry x="510" y="140" width="80" height="80" as="geometry" />
        </mxCell>
        <mxCell id="_ykrzSrl-alsBTrrcDqD-298" value="munmap()&lt;div&gt;1&lt;/div&gt;" style="ellipse;whiteSpace=wrap;html=1;aspect=fixed;fontFamily=Courier New;fontSize=17;fillColor=#f8cecc;strokeColor=#b85450;" vertex="1" parent="1">
          <mxGeometry x="610" y="140" width="80" height="80" as="geometry" />
        </mxCell>
        <mxCell id="_ykrzSrl-alsBTrrcDqD-302" value="&lt;font style=&quot;font-size: 17px;&quot;&gt;&lt;font style=&quot;&quot; face=&quot;Courier New&quot;&gt;addrfilter&lt;/font&gt; Filters&lt;/font&gt;" style="swimlane;whiteSpace=wrap;html=1;" vertex="1" parent="1">
          <mxGeometry x="400" y="10" width="320" height="330" as="geometry" />
        </mxCell>
        <mxCell id="_ykrzSrl-alsBTrrcDqD-310" value="" style="swimlane;startSize=0;" vertex="1" parent="_ykrzSrl-alsBTrrcDqD-302">
          <mxGeometry x="10" y="29" width="280" height="81" as="geometry" />
        </mxCell>
        <mxCell id="_ykrzSrl-alsBTrrcDqD-312" value="" style="swimlane;startSize=0;" vertex="1" parent="_ykrzSrl-alsBTrrcDqD-302">
          <mxGeometry x="10" y="130" width="180" height="80" as="geometry" />
        </mxCell>
        <mxCell id="_ykrzSrl-alsBTrrcDqD-313" value="" style="swimlane;startSize=0;" vertex="1" parent="_ykrzSrl-alsBTrrcDqD-302">
          <mxGeometry x="210" y="130" width="80" height="80" as="geometry" />
        </mxCell>
        <mxCell id="_ykrzSrl-alsBTrrcDqD-299" value="getpid()&lt;div&gt;1&lt;/div&gt;" style="ellipse;whiteSpace=wrap;html=1;aspect=fixed;fontFamily=Courier New;fontSize=17;fillColor=#e1d5e7;strokeColor=#9673a6;" vertex="1" parent="_ykrzSrl-alsBTrrcDqD-302">
          <mxGeometry x="110" y="230" width="80" height="80" as="geometry" />
        </mxCell>
        <mxCell id="_ykrzSrl-alsBTrrcDqD-300" value="chmod()&lt;div&gt;3&lt;/div&gt;" style="ellipse;whiteSpace=wrap;html=1;aspect=fixed;fontFamily=Courier New;fontSize=17;fillColor=#e1d5e7;strokeColor=#9673a6;" vertex="1" parent="_ykrzSrl-alsBTrrcDqD-302">
          <mxGeometry x="210" y="230" width="80" height="80" as="geometry" />
        </mxCell>
        <mxCell id="_ykrzSrl-alsBTrrcDqD-301" value="umount()&lt;div&gt;2&lt;/div&gt;" style="ellipse;whiteSpace=wrap;html=1;aspect=fixed;fontFamily=Courier New;fontSize=17;fillColor=#d5e8d4;strokeColor=#82b366;" vertex="1" parent="_ykrzSrl-alsBTrrcDqD-302">
          <mxGeometry x="10" y="230" width="80" height="80" as="geometry" />
        </mxCell>
        <mxCell id="_ykrzSrl-alsBTrrcDqD-314" value="" style="swimlane;startSize=0;" vertex="1" parent="_ykrzSrl-alsBTrrcDqD-302">
          <mxGeometry x="10" y="230" width="80" height="80" as="geometry" />
        </mxCell>
        <mxCell id="_ykrzSrl-alsBTrrcDqD-316" value="" style="swimlane;startSize=0;" vertex="1" parent="_ykrzSrl-alsBTrrcDqD-302">
          <mxGeometry x="110" y="230" width="180" height="80" as="geometry" />
        </mxCell>
        <mxCell id="_ykrzSrl-alsBTrrcDqD-304" value="System Call Legend" style="swimlane;fontStyle=0;childLayout=stackLayout;horizontal=1;startSize=30;horizontalStack=0;resizeParent=1;resizeParentMax=0;resizeLast=0;collapsible=1;marginBottom=0;whiteSpace=wrap;html=1;fontSize=16;" vertex="1" parent="1">
          <mxGeometry x="750" y="10" width="160" height="120" as="geometry" />
        </mxCell>
        <mxCell id="_ykrzSrl-alsBTrrcDqD-305" value="1 - Low Threat" style="text;strokeColor=none;fillColor=none;align=left;verticalAlign=middle;spacingLeft=4;spacingRight=4;overflow=hidden;points=[[0,0.5],[1,0.5]];portConstraint=eastwest;rotatable=0;whiteSpace=wrap;html=1;fontSize=16;" vertex="1" parent="_ykrzSrl-alsBTrrcDqD-304">
          <mxGeometry y="30" width="160" height="30" as="geometry" />
        </mxCell>
        <mxCell id="_ykrzSrl-alsBTrrcDqD-306" value="2 - Medium Threat" style="text;strokeColor=none;fillColor=none;align=left;verticalAlign=middle;spacingLeft=4;spacingRight=4;overflow=hidden;points=[[0,0.5],[1,0.5]];portConstraint=eastwest;rotatable=0;whiteSpace=wrap;html=1;fontSize=16;" vertex="1" parent="_ykrzSrl-alsBTrrcDqD-304">
          <mxGeometry y="60" width="160" height="30" as="geometry" />
        </mxCell>
        <mxCell id="_ykrzSrl-alsBTrrcDqD-307" value="3 - High Threat" style="text;strokeColor=none;fillColor=none;align=left;verticalAlign=middle;spacingLeft=4;spacingRight=4;overflow=hidden;points=[[0,0.5],[1,0.5]];portConstraint=eastwest;rotatable=0;whiteSpace=wrap;html=1;fontSize=16;" vertex="1" parent="_ykrzSrl-alsBTrrcDqD-304">
          <mxGeometry y="90" width="160" height="30" as="geometry" />
        </mxCell>
        <mxCell id="_ykrzSrl-alsBTrrcDqD-308" value="&amp;nbsp; &amp;nbsp; &amp;nbsp;Overall Application Privilege&lt;div&gt;=&amp;nbsp; sum(scores)&lt;/div&gt;&lt;div&gt;= &lt;b&gt;15&lt;/b&gt;&lt;/div&gt;" style="text;html=1;align=left;verticalAlign=middle;whiteSpace=wrap;rounded=0;fontSize=18;" vertex="1" parent="1">
          <mxGeometry x="30" y="350" width="260" height="70" as="geometry" />
        </mxCell>
        <mxCell id="_ykrzSrl-alsBTrrcDqD-309" value="&amp;nbsp; &amp;nbsp; Overall Application Privilege&lt;div&gt;=&amp;nbsp; &amp;nbsp;max(&lt;font style=&quot;color: rgb(51, 153, 255);&quot;&gt;(1+1+1)&lt;/font&gt;, &lt;font style=&quot;color: rgb(204, 204, 0);&quot;&gt;(3+2)&lt;/font&gt;, &lt;font style=&quot;color: rgb(255, 126, 126);&quot;&gt;1&lt;/font&gt;,&amp;nbsp;&lt;font style=&quot;background-color: transparent;&quot; color=&quot;#009900&quot;&gt;2&lt;/font&gt;&lt;span style=&quot;background-color: transparent; color: light-dark(rgb(0, 0, 0), rgb(255, 255, 255));&quot;&gt;,&lt;/span&gt;&lt;font style=&quot;background-color: transparent; color: rgb(204, 0, 204);&quot;&gt;&amp;nbsp;&lt;/font&gt;&lt;font style=&quot;background-color: transparent; color: rgb(204, 0, 204);&quot;&gt;(3+1)&lt;/font&gt;&lt;span style=&quot;background-color: transparent; color: light-dark(rgb(0, 0, 0), rgb(255, 255, 255));&quot;&gt;)&lt;/span&gt;&lt;/div&gt;&lt;div&gt;=&amp;nbsp; &amp;nbsp;&lt;b&gt;5&lt;/b&gt;&lt;/div&gt;" style="text;html=1;align=left;verticalAlign=middle;whiteSpace=wrap;rounded=0;fontSize=18;" vertex="1" parent="1">
          <mxGeometry x="400" y="350" width="300" height="70" as="geometry" />
        </mxCell>
      </root>
    </mxGraphModel>
  </diagram>
</mxfile>
